<?xml version="1.0" encoding="UTF-8"?>
<svg id="Layer_2" data-name="Layer 2" xmlns="http://www.w3.org/2000/svg" viewBox="0 0 909.89 653.96">
  <defs>
    <style>
      .cls-1 {
        fill: #030201;
      }
    </style>
  </defs>
  <g id="Layer_1-2" data-name="Layer 1">
    <g>
      <path class="cls-1" d="M277.81,368.84c-.22-1.09-.48-2.17-.78-3.24-.15-.58-.32-1.14-.49-1.71-1.75-5.74-4.48-11.16-8.64-15.88-6.01-6.83-14.87-9.01-21.39-4.67-4.14,2.75-8.27,5.96-11.31,9.83-14.83,18.9-19.88,41.07-20.89,65.74,.36,4.03,.54,9.24,1.36,14.35,.49,3.08,1.03,6.15,1.77,9.14,.21,.9,.45,1.8,.7,2.69,.09,.32,.19,.64,.28,.95s.19,.64,.3,.95c1.86,5.66,4.68,10.91,9.47,15.22,4.67,4.21,10.12,6.81,16.55,3.73,2.93-1.4,5.97-2.81,8.52-4.78,8.34-6.48,13.11-15.61,17.24-25.01,8.73-19.86,10.85-40.77,8.17-62.06-.22-1.76-.5-3.51-.86-5.25Zm-14.18,14.06c-2.53,.95-6.83,.32-8.94-1.35-.41-.33-.79-.66-1.14-1.03-.18-.18-.35-.36-.52-.55-.16-.18-.31-.36-.45-.55-.12-.15-.23-.29-.33-.44-.09-.11-.17-.23-.24-.34-.04-.05-.07-.11-.1-.16-.09-.13-.17-.27-.25-.41-.31-.54-.58-1.1-.79-1.68-.08-.21-.15-.43-.22-.64-.07-.22-.13-.44-.19-.67-.05-.2-.1-.41-.14-.63-.01-.03-.02-.06-.02-.1-.04-.2-.07-.41-.1-.62-.03-.16-.05-.32-.06-.48-.02-.11-.03-.23-.04-.35v-.02c-.02-.17-.03-.35-.03-.54,0-.23-.02-.47-.02-.7s0-.46,0-.69v-.06c.03-.44,.06-.88,.11-1.32,.07-.61,.18-1.23,.31-1.84,.05-.25,.11-.51,.17-.76,.01-.05,.02-.09,.03-.14,.09-.32,.17-.64,.27-.96,.16-.55,.35-1.08,.56-1.6,.21-.51,.44-1.01,.69-1.48,.17-.32,.35-.63,.53-.92,.09-.15,.18-.3,.28-.44,.2-.29,.39-.57,.59-.84,.1-.13,.21-.26,.32-.39,.09-.12,.19-.23,.29-.34,.11-.14,.23-.27,.36-.4l.39-.39c.2-.19,.39-.37,.6-.54,.2-.17,.4-.33,.62-.49,.14-.11,.28-.21,.42-.3s.26-.17,.39-.25c.69-.43,1.42-.76,2.15-.99,.14-.04,.27-.09,.41-.12,.42-.1,.84-.18,1.26-.23,.14-.02,.28-.03,.42-.04,.53-.03,1.06,0,1.59,.08,5.1,.79,8.85,6.45,8.73,13.84-.39,5.19-2.1,10.7-7.92,12.87Z"/>
      <path class="cls-1" d="M908.91,416.71c-2.1-6.87-5.36-13.43-8.5-19.93-16.57-34.31-36.66-66.32-65.33-91.78-10.73-9.53-23.39-17.44-36.31-23.73-9.4-4.58-20.63-5.53-31.13-7.61-7.41-1.47-13.77,1.36-18.18,7.38-3.27,4.45-5.94,9.37-8.52,14.28-11.44,21.76-49.72,95.45-57.67,110.41-2.4,4.52-5.27,8.8-7.99,13.29-.88-.63-1.36-.85-1.69-1.21-10.66-11.77-30.31-6.79-33.97,8.88-1.4,5.98-4.1,11.66-6.2,17.47-10.24-46.14-28.73-87.53-60.72-122.41,4.12-3.12,7.54-5.26,10.42-7.99,17.09-16.22,34.66-32.01,50.88-49.08,14.42-15.17,28.03-31.26,40.72-47.92,24.57-32.24,44.91-67.09,62.42-103.71,13.82-28.89,24.78-58.72,32.58-89.7,1.11-4.41-.5-10.51-2.93-14.6-5.31-8.93-18.44-11.38-29.95-5.7-21.71,10.72-43.38,21.59-64.61,33.22-31.06,17.03-58.41,39.26-83.76,63.79-14.04,13.58-27.03,28.33-39.76,43.18-22,25.68-76.97,92.62-82.63,99.66-9.44-3-18.44-5.95-27.5-8.7-19.8-6.01-40.08-9.87-60.64-11.42-13.92-1.04-28-.64-41.97-.03-9.96,.43-20.04,1.48-29.75,3.67-13.5,3.03-26.72,7.33-40.01,11.23-2.4,.7-3.82,1.04-5.48-1.64-15.35-24.75-30.66-49.54-46.48-73.99-13.32-20.57-28.61-39.66-45.38-57.56-21.42-22.85-45.6-42.08-73.05-57.13-23.06-12.64-47.34-22.2-72.88-28.43C12.83,16.43,2.63,22.62,1,32.81c-1.17,7.24-1.33,14.91-.37,22.18,4.44,33.54,14.92,65.17,32.1,94.37,12.34,20.96,26.49,40.73,42.83,58.76,21.2,23.4,42.67,46.54,64.34,69.49,8.31,8.79,17.5,16.75,25.24,24.1-11.41,16.98-22.45,32.1-32.04,48.09-8.51,14.2-17.03,28.79-22.66,44.26-11.77,32.36-16.69,65.99-14.37,100.69,2.27,34.13,16.51,62.01,41.53,84.53,18.01,16.2,38.04,29.75,60.49,38.98,17.07,7.02,34.51,13.5,52.3,18.32,18.32,4.97,37.18,8.14,55.96,11.17,16.03,2.59,32.22,4.75,48.42,5.51,19.88,.94,39.87,.9,59.77,.04,21.04-.91,41.98-2.98,62.82-6.95,25.62-4.88,49.95-12.96,72.88-24.99,21.73-11.4,41.56-25.62,57.66-44.78l2.74,3.43c8.43,10.62,25.63,9.33,32.09-2.5,1.73-3.18,3.06-6.58,4.56-9.88l13.94-30.82c.93,.12,1.63,.11,2.26,.31,9.87,3.17,17.58,.19,23.58-8.09,2.64-3.65,5.68-7.01,8.36-10.63,6.91-9.31,13.67-18.74,20.6-28.04,4.8-6.44,9.8-12.75,14.97-19.46,1.38,1.92,28.46,40.95,41.14,58.97,7.2,10.23,20.32,11.76,29.46,3.43,12.15-11.08,91.86-85.79,100.55-94,6.56-6.19,9.41-13.92,6.76-22.59ZM750.64,18.96c-2.75,8.92-5.27,16.98-7.72,25.07-1.13,3.75-1.86,7.65-3.26,11.29-1.63,4.22-3.82,8.22-5.7,12.34-8.1,17.77-16.53,35.36-26.96,51.91-.45,.71-.55,3.68-2.77,1.36-1.51-19.24-2.74-38.56-8.33-57.17-1.34-4.47-4.31-8.45-6.53-12.66,19.19-12.31,39.21-23.05,61.27-32.14ZM74.32,86.56c-3.16,22.96-5.29,46.03-4.42,69.26-1.65-1.6-3.65-2.98-4.9-4.85-8.22-12.33-16.68-24.53-24.29-37.23-11.06-18.46-16.26-39.06-20.12-60.02-.95-5.18-1.4-10.45-2.16-16.27,22.57,7.02,44.05,14.63,63.38,27.27-5.8,6.13-6.44,14.22-7.49,21.84ZM619.24,493.63c-.34,15.87-2.03,31.44-9.49,45.75-1.12,2.14-3.71,3.51-5.63,5.24,.24-1.53,.5-3.05,.71-4.58,1.13-8.03,3.22-16.07,3.18-24.1-.1-19.48-7.37-36.1-22.38-48.96-7.26-6.22-16.09-9.88-25.21-9.45-10.66,.5-20.69,4.47-29.7,11.06-19.1,13.98-34.15,30.77-40.68,54.11-6.83,24.39-.57,46.03,14.67,65.26,9.27,11.7,22.73,14.34,36.93,14.12-4.35,2.85-8.41,6.33-13.09,8.44-27.91,12.55-57.4,19.62-87.78,21.55-28.49,1.82-57.12,2.19-85.68,2.02-14.12-.08-28.4-1.88-42.29-4.56-25.76-4.97-51.49-10.44-76.87-17.07-17.72-4.64-34.65-12-50.11-22.22-1.09-.72-1.89-1.87-2.83-2.82,12.01-1.61,17.92-10.15,22.52-20.06,6.61-14.26,8.32-28.95,4.91-44.5-7.2-32.83-26.7-54.37-58.35-64.8-10.6-3.5-22.37,.99-28.61,10.44-3.27,4.96-5.33,10.72-7.94,16.11-.3-5.82-1.16-11.69-.8-17.47,1.24-19.56,4.23-38.85,10.21-57.59,8.04-25.16,20.82-47.96,35.92-69.37,9.13-12.95,19.96-24.7,30.51-37.58-.3-.32-1.47-1.75-2.79-3.03-36.02-34.88-70.94-70.82-103.49-109-1.55-1.82-2.04-4.56-3.02-6.87-1.08-28.75,1.55-57.3,5.47-85.71,1.3-9.43,2.08-19.44,9.27-27.02,3.08,1.36,6.42,2.32,9.2,4.15,30.36,20.02,55.28,45.74,76.81,74.8,25.03,33.79,48.31,68.74,67.61,106.19,2.04,3.96,3.9,4.76,8.43,3.4,18.7-5.63,37.37-11.72,56.48-15.52,17.55-3.49,35.54-4.63,53.67-3.14,27.9,2.28,55.25,6.78,81.58,16.52,6.95,2.57,13.68,5.78,21.07,8.93,5.64-7.31,11.35-15.12,17.48-22.58,24.02-29.23,47.95-58.54,72.37-87.43,18.72-22.15,38.44-43.45,60.83-61.98,12.28-10.16,25.29-19.43,38.05-29.01,1.12-.84,2.76-.98,4.17-1.44,3.11,5.9,7.28,11.49,9.16,17.77,7.85,26.13,10.04,53.22,11.7,80.27,.48,7.87-4.44,13.53-8.49,19.48-32.28,47.35-70.56,89.15-115.13,125.17-4.31,3.47-8.08,7.61-12.05,11.49-.72,.69-1.22,1.62-1.81,2.44,6.81,8.36,13.55,16.46,20.09,24.72,10.23,12.93,19.56,26.49,26.52,41.49,9.16,19.71,15.07,40.48,18.97,61.82,2.72,14.93,6.06,29.77,5.73,45.12Zm18.5,20.11l-1.39-.44,2.06-11.25-.15,.24v-.02l.08-.45-4.71,7.34-1.78-.8c7.76-26.1,17.45-51.56,26.54-78.47l22.65,20.55c5.83-11,58.96-112.32,79.66-152.61,2.73-5.31,5.92-5.75,11.09-4.98,26.09,3.87,45.31,19.17,62.47,37.59,23.31,25.03,40.17,54.31,54.4,85.2,.89,1.94,1.54,3.35,1.9,4.49,.01,.04,.02,.07,.03,.11,.8,2.9-.47,3.96-4.58,7.8-29.91,27.95-95,88.81-98.19,91.7l-56.19-81.34-61.25,81.42-12.56-21.02-11.3,24.14-1.7-.5,.72-7.39-.1,.09h0s.03-.32,.03-.32l-4.03,3.81v-8.72l-.08,.09v-.32l-3.62,4.06Z"/>
      <path class="cls-1" d="M473.99,380.89c-.19-.69-.39-1.37-.61-2.03l-.33-.99c-1.14-3.36-2.58-6.47-4.38-9.69-7.85-13.98-22.2-20.83-37.94-9.7-4.34,3.07-8.68,6.64-11.76,10.9-17.1,23.64-24.07,49.56-18.07,77.33,.12,.59,.25,1.18,.4,1.78,.13,.57,.27,1.15,.42,1.73,.45,1.8,.96,3.6,1.52,5.42,.12,.4,.25,.79,.38,1.17,8,23.55,29.2,31.3,48.81,11.34,17.63-17.96,23.33-40.69,24.72-62.16-.45-10.83-1.33-18.44-3.1-24.88-.01-.07-.03-.15-.06-.22Zm-27.54,5.05c-.03,.25-.07,.49-.12,.73-.05,.28-.12,.55-.19,.83-.11,.44-.24,.87-.4,1.29-.16,.42-.34,.83-.53,1.24t-.01,.01c-.19,.4-.41,.79-.64,1.17-.16,.26-.32,.51-.49,.75-.22,.3-.44,.59-.67,.87-.35,.42-.73,.81-1.12,1.19-.14,.14-.3,.28-.45,.41-.19,.17-.38,.33-.58,.48s-.4,.31-.6,.45c-.16,.11-.33,.22-.49,.33-.94,.62-1.98,1.07-3.05,1.46-.18,.07-.37,.13-.56,.18-.24,.08-.49,.14-.75,.2-.2,.05-.41,.09-.62,.13-.56,.11-1.13,.18-1.71,.21-.26,.02-.53,.03-.8,.03h-.09c-.24,0-.47-.01-.71-.02-.24-.01-.47-.03-.71-.05-.15-.01-.31-.03-.47-.05-.18-.03-.35-.05-.53-.08-.02-.01-.05-.01-.07-.02-.19-.03-.38-.06-.56-.11-.15-.03-.31-.06-.46-.1-.15-.04-.31-.08-.46-.13-.27-.07-.54-.16-.8-.25-.42-.15-.84-.33-1.24-.51-1-.48-1.94-1.07-2.79-1.76-.34-.28-.67-.57-.98-.88s-.61-.63-.89-.97c-.27-.33-.54-.68-.79-1.04-.37-.54-.7-1.12-1-1.72-.14-.3-.28-.61-.4-.92-.38-.94-.66-1.93-.82-2.96h0c-.07-.46-.12-.93-.15-1.4-.02-.24-.03-.48-.03-.72-.01-.41,.02-.81,.04-1.21,.01-.24,.04-.47,.07-.71v-.04c.04-.28,.08-.56,.13-.83,.05-.28,.11-.56,.18-.84,.08-.33,.18-.66,.29-.98,.07-.21,.14-.43,.22-.63,.08-.2,.16-.4,.24-.59,.14-.32,.29-.63,.45-.94,.13-.24,.27-.48,.41-.72,.13-.21,.26-.42,.4-.63,.03-.05,.06-.09,.1-.14,.14-.2,.29-.4,.44-.59,.33-.44,.7-.85,1.09-1.24,.17-.17,.34-.34,.52-.51,.05-.04,.1-.09,.15-.13,.14-.13,.28-.25,.43-.36,.25-.21,.51-.41,.78-.6,.36-.25,.73-.49,1.12-.71,.19-.11,.38-.21,.58-.31,.12-.06,.24-.12,.36-.17,.18-.09,.37-.17,.55-.25,.26-.11,.52-.21,.78-.3,.27-.1,.54-.18,.81-.26,.27-.07,.55-.14,.83-.2,.2-.05,.4-.08,.61-.12,.18-.03,.37-.06,.55-.08,.02,0,.03-.01,.05,0,.22-.04,.44-.06,.67-.07s.47-.03,.7-.04h.34c.23,0,.46,.01,.7,.02,.19,.01,.39,.02,.58,.04,.27,.02,.54,.06,.81,.1,.23,.04,.45,.08,.67,.13,.23,.05,.45,.1,.67,.16,.22,.06,.44,.12,.66,.19,.43,.14,.86,.3,1.28,.48,.31,.13,.62,.28,.92,.44,.3,.16,.59,.33,.88,.5,.39,.23,.76,.49,1.12,.76,.18,.14,.36,.28,.53,.42,.35,.29,.68,.6,1,.92,.63,.64,1.22,1.33,1.73,2.08,.32,.46,.61,.95,.87,1.45,.13,.25,.25,.5,.37,.75h0c.11,.27,.22,.53,.32,.8h0c.09,.22,.16,.44,.23,.66,.26,.83,.45,1.68,.55,2.56,.02,.14,.03,.29,.04,.43,.03,.38,.05,.77,.05,1.16,0,.64-.05,1.27-.14,1.88Z"/>
      <path class="cls-1" d="M352.05,458.01c.03-.06,.06-.12,.09-.18-13.95-4.39-27-3.83-40.39-1.79,.1,1.08,.03,1.78,.21,2.34,0,.02,0,.04,.01,.05,.01,.03,.01,.05,.02,.08,0,.08,.03,.17,.06,.24,3.17,8.65,10.07,13.84,17.44,18.52,.54,.35,1.63,.27,2.47-.03,.28-.1,.54-.23,.73-.37,5.33-3.85,10.7-7.67,15.67-11.94,1.75-1.49,2.43-4.23,3.85-6.87-.05-.02-.11-.03-.16-.05Z"/>
    </g>
  </g>
</svg>